<svg id="Layer_1" data-name="Layer 1" xmlns="http://www.w3.org/2000/svg" viewBox="0 0 334.83 85.14"><defs><style>.cls-1{fill:#231f20;}</style></defs><title>gabi_profileArtboard 4</title><polygon class="cls-1" points="35.99 5.57 1.8 5.57 1.8 66.62 11.67 66.62 11.67 40.45 34.16 40.45 34.16 31.73 12.13 31.73 12.13 14.75 35.99 14.75 35.99 5.57"/><path class="cls-1" d="M116.92,23.89s-15.26-7.4-27.29,1.94-8,26.64-8,26.64S85.65,67.93,104,67.6c0,0,10.82-.7,12.49-3L114.7,56s-11.47,7.95-21.19-2.5c0,0-2.4-4.53-2-8.05s2.22-21.09,22.57-12.67Z"/><path class="cls-1" d="M120,22h6.66V12.33l10.18-2.87V22h10.73v8.69H136.62l.37,23.5s-.92,6.57,9.72,3.51l.83,8.51s-20.63,7.59-20.91-11.28-.18-24.14-.18-24.14L120,30.55Z"/><path class="cls-1" d="M199.9,15.93s9.62,11.48,2.77,33.49-47.82,17.11-47.82,17.11V6.5C193.24.58,199.9,15.93,199.9,15.93Zm-34.69-1.38v43.2s27.19,4.53,29.32-19.89S173,12.05,165.21,14.55Z"/><path class="cls-1" d="M212.66,21.86h9.71v4.71s5.28-7.95,14.44-4.71v10s-7.41-3.15-12.08,5.08a25.57,25.57,0,0,0-1.06,7.4v22.3H213.22Z"/><path class="cls-1" d="M282.5,41.37s-.09,26-21.27,26.37-22.39-21.83-22.39-21.83C239.58,21.48,260,21.08,260,21.08,281.86,20.86,282.5,41.37,282.5,41.37ZM257.62,30.18s-7.68,2.74-8.23,13.67c0,0-.65,14.45,11.84,15.1s10.36-19.06,10.36-19.06S269.55,27.31,257.62,30.18Z"/><path class="cls-1" d="M289.81,21.86h10.08V26.3s8.88-10.18,23.41-2.69,8.32,29.88,8.32,29.88-5.92,15.27-19.15,14.25c0,0-8.78-.09-11.65-4.17L300.91,84H290.37Zm18.63,8.37S300.76,33,300.21,43.9c0,0-.65,14.45,11.84,15.1s10.36-19.06,10.36-19.06S320.37,27.36,308.44,30.23Z"/><path class="cls-1" d="M61.51,21.67C72,23.8,73.07,35.55,73.07,35.55S73.16,47,73.16,55A48.58,48.58,0,0,0,74.55,67.6h-11v-4C47,74,39.21,60.88,39.21,60.88s-4.82-6.66.92-15.15,22.26-8.26,22.26-8.26.46-6.2-5.51-8-14,3.67-14,3.67l-2.75-7.34S51.06,19.54,61.51,21.67Zm1.07,24S49.09,45,48.41,53s7.52,6,7.52,6S65.83,55.75,62.58,45.68Z"/></svg>