<svg id="Layer_1" data-name="Layer 1" xmlns="http://www.w3.org/2000/svg" viewBox="0 0 1227 976"><defs><style>.cls-1{fill:#ec008c;}</style></defs><title>gabi_profileArtboard 1</title><path class="cls-1" d="M616.14,124.14S1012.36-205.07,1222.22,230c0,0,40.63,211.37-115.11,348.16S660.28,976,660.28,976H565.49L91.55,534.57S-37,348.08,10.33,211.3,308-136.86,616.14,124.14ZM438,284.15c-49.61.08-89.75,37.07-89.67,82.62s40.37,82.42,90,82.34S527.93,412.17,528,366.7s-40.26-82.46-89.86-82.45H438Zm356.16,0c-49.6,0-89.82,36.93-89.82,82.48s40.22,82.48,89.82,82.48S884,412.18,884,366.63v0c-.07-45.5-40.27-82.35-89.83-82.33Zm54.71,205.32c-32.08-28-59.18-7.72-59.18-7.72-21.82,88-117.25,143.19-213.14,123.15-66.31-13.86-118.23-61.19-133.81-122-6.59-1-36.85-5-62.87,13.1a72.25,72.25,0,0,0-21.51,24,8.19,8.19,0,0,1-.39.85,106.92,106.92,0,0,0-9.75,44c0,90.45,118.73,163.55,265.14,163.55s265.42-73.1,265.42-163.55c0-27-10.83-52.56-29.91-75.19Z"/></svg>