<?xml version="1.0" encoding="utf-8"?>
<!-- Generator: Adobe Illustrator 23.0.1, SVG Export Plug-In . SVG Version: 6.00 Build 0)  -->
<svg version="1.1" id="Layer_1" xmlns="http://www.w3.org/2000/svg" xmlns:xlink="http://www.w3.org/1999/xlink" x="0px" y="0px"
	 viewBox="0 0 694.9 609.7" style="enable-background:new 0 0 694.9 609.7;" xml:space="preserve">
<style type="text/css">
	.st0{fill:none;stroke:#231F20;stroke-miterlimit:10;}
</style>
<title>gabi_profileArtboard 9</title>
<g>
	<line class="st0" x1="-349.8" y1="29.7" x2="983.4" y2="29.7"/>
	<line class="st0" x1="-349.3" y1="80.3" x2="984" y2="80.3"/>
	<line class="st0" x1="-349.3" y1="139" x2="984" y2="139"/>
	<line class="st0" x1="-349.3" y1="187.9" x2="984" y2="187.9"/>
	<line class="st0" x1="-349.8" y1="243.5" x2="983.4" y2="243.5"/>
	<line class="st0" x1="-350.1" y1="293.3" x2="983.1" y2="293.3"/>
	<line class="st0" x1="-349.6" y1="347.6" x2="983.7" y2="347.6"/>
	<line class="st0" x1="-349.6" y1="402.6" x2="983.7" y2="402.6"/>
	<line class="st0" x1="-349.6" y1="451.5" x2="983.7" y2="451.5"/>
	<line class="st0" x1="-349" y1="505.8" x2="984.2" y2="505.8"/>
	<line class="st0" x1="-349" y1="560.8" x2="984.2" y2="560.8"/>
	<line class="st0" x1="-349" y1="609.7" x2="984.2" y2="609.7"/>
	<line class="st0" x1="290.4" y1="0.1" x2="290.4" y2="639.6"/>
	<line class="st0" x1="234.6" y1="0.4" x2="234.6" y2="639.9"/>
	<line class="st0" x1="169.8" y1="0.4" x2="169.8" y2="639.9"/>
	<line class="st0" x1="115.7" y1="0.4" x2="115.7" y2="639.9"/>
	<line class="st0" x1="54.3" y1="0.1" x2="54.3" y2="639.6"/>
	<line class="st0" x1="-0.7" y1="0" x2="-0.7" y2="639.5"/>
	<line class="st0" x1="-60.6" y1="0.3" x2="-60.6" y2="639.7"/>
	<line class="st0" x1="-121.4" y1="0.3" x2="-121.4" y2="639.7"/>
	<line class="st0" x1="-175.4" y1="0.3" x2="-175.4" y2="639.7"/>
	<line class="st0" x1="-235.3" y1="0.5" x2="-235.3" y2="640"/>
	<line class="st0" x1="-296.1" y1="0.5" x2="-296.1" y2="640"/>
	<line class="st0" x1="-350.1" y1="0.5" x2="-350.1" y2="640"/>
	<line class="st0" x1="931" y1="0.4" x2="931" y2="639.9"/>
	<line class="st0" x1="875.2" y1="0.7" x2="875.2" y2="640.1"/>
	<line class="st0" x1="810.4" y1="0.7" x2="810.4" y2="640.1"/>
	<line class="st0" x1="756.3" y1="0.7" x2="756.3" y2="640.1"/>
	<line class="st0" x1="694.9" y1="0.4" x2="694.9" y2="639.9"/>
	<line class="st0" x1="639.9" y1="0.3" x2="639.9" y2="639.7"/>
	<line class="st0" x1="580" y1="0.5" x2="580" y2="640"/>
	<line class="st0" x1="519.2" y1="0.5" x2="519.2" y2="640"/>
	<line class="st0" x1="465.2" y1="0.5" x2="465.2" y2="640"/>
	<line class="st0" x1="405.3" y1="0.8" x2="405.3" y2="640.3"/>
	<line class="st0" x1="344.5" y1="0.8" x2="344.5" y2="640.3"/>
	<line class="st0" x1="290.4" y1="0.8" x2="290.4" y2="640.3"/>
	<line class="st0" x1="931" y1="0.3" x2="931" y2="639.7"/>
</g>
</svg>
