<svg id="Layer_1" data-name="Layer 1" xmlns="http://www.w3.org/2000/svg" viewBox="0 0 318.33 275.65"><defs><style>.cls-1{fill:#ec008c;}</style></defs><title>pinkvectorheart</title><path class="cls-1" d="M159.87,35S262.65-58,317.09,64.89c0,0,10.54,59.71-29.86,98.35s-115.91,112.4-115.91,112.4H146.73L23.79,150.94S-9.57,98.26,2.72,59.62,79.93-38.73,159.87,35ZM113.66,80.2A23.3,23.3,0,1,0,137,103.52,23.3,23.3,0,0,0,113.66,80.2h0Zm92.39,0a23.3,23.3,0,1,0,23.3,23.3h0a23.3,23.3,0,0,0-23.3-23.26Zm14.19,58c-8.32-7.92-15.35-2.18-15.35-2.18a46.19,46.19,0,0,1-90,.33c-1.71-.29-9.56-1.4-16.31,3.7A19.94,19.94,0,0,0,93,146.84a2.44,2.44,0,0,1-.1.24,32.56,32.56,0,0,0-2.53,12.43c0,25.55,30.8,46.2,68.78,46.2S228,185.06,228,159.51c0-7.62-2.81-14.85-7.76-21.24Z" transform="translate(0 0.01)"/></svg>