<svg id="Layer_1" data-name="Layer 1" xmlns="http://www.w3.org/2000/svg" viewBox="0 0 512.16 90.33"><defs><style>.cls-1{fill:#231f20;}</style></defs><title>gabi_profileArtboard 5</title><path class="cls-1" d="M2.51,4.26h11V46.07s2.27,13.61,12.18,13.51S39.4,53.31,39.4,45.22v-41H50.32v41S50,69,25.45,69.09,2.51,38.85,2.51,38.85Z"/><path class="cls-1" d="M240.48,24.08S229.16,17.51,220.66,22s-8.79,10.22-8.79,10.22-2.74,11.42,16.48,18.4c0,0,7.38,5.46-1.21,9.41,0,0-10.52.91-14.26-3.64l-3,8.69s10.52,6.68,22.25,2.43c0,0,8.5-3.14,9.2-9.91,0,0,2-10-6.57-15.07,0,0-9.91-4.05-11.93-5.82,0,0-4.76-7.73,6.27-7.12l8.59,3.13Z"/><path class="cls-1" d="M88.71,24.08S77.38,17.51,68.89,22s-8.8,10.22-8.8,10.22S57.36,43.6,76.57,50.58c0,0,7.38,5.46-1.21,9.41,0,0-10.52.91-14.26-3.64l-3,8.69s10.52,6.68,22.25,2.43c0,0,8.5-3.14,9.21-9.91,0,0,2-10-6.58-15.07,0,0-9.91-4.05-11.93-5.82,0,0-4.75-7.73,6.27-7.12l8.6,3.13Z"/><path class="cls-1" d="M276.78,24.08S265.45,17.51,257,22s-8.8,10.22-8.8,10.22-2.73,11.42,16.48,18.4c0,0,7.39,5.46-1.21,9.41,0,0-10.52.91-14.26-3.64l-3,8.69s10.51,6.68,22.24,2.43c0,0,8.5-3.14,9.21-9.91,0,0,2-10-6.58-15.07,0,0-9.91-4.05-11.93-5.82,0,0-4.75-7.73,6.27-7.12l8.6,3.13Z"/><rect class="cls-1" x="144.43" y="1.39" width="10.98" height="66.64"/><path class="cls-1" d="M302.45,21.71h12l11.61,30.8,10.6-30.8H348S326.43,91.38,308.5,88.1l-3-9.34a23,23,0,0,0,14.76-13.38Z"/><polygon class="cls-1" points="343.34 4.42 343.34 14.14 361.64 14.14 361.64 68.03 372.75 68.03 372.75 14.14 390.92 13.88 390.92 4.42 343.34 4.42"/><path class="cls-1" d="M422,21.71h11v29s1.15,9.06,8.94,8.83c0,0,8.93-.81,9.16-9.28V21.71h10.77L462.51,68H452.43l-.35-4.61s-10.88,11.46-23.83,1.84c0,0-6.18-3.33-6.3-19.14Z"/><path class="cls-1" d="M116.68,29.11c7.82-.38,8.45,9.84,8.45,9.84H105.57C106.46,35.67,108.85,29.49,116.68,29.11ZM105.57,47.54h30.17s2-15.78-6.44-22.6-18.55-3.66-18.55-3.66S99.39,24.72,97,34,94.47,47.28,95.6,52.58s6.94,14.14,15.15,15.65,21.33-.63,23-2.65L131.82,57s-16.28,6.94-23.35-1C108.47,56,104.81,53.34,105.57,47.54Z"/><path class="cls-1" d="M185.94,29.11c7.82-.38,8.45,9.84,8.45,9.84H174.83C175.71,35.67,178.11,29.49,185.94,29.11ZM174.83,47.54H205s2-15.78-6.44-22.6S180,21.28,180,21.28,168.65,24.72,166.25,34s-2.53,13.24-1.39,18.54S171.8,66.72,180,68.23s21.33-.63,23-2.65L201.08,57s-16.28,6.94-23.35-1C177.73,56,174.07,53.34,174.83,47.54Z"/><path class="cls-1" d="M491.58,29.11C499.4,28.73,500,39,500,39H480.47C481.35,35.67,483.75,29.49,491.58,29.11ZM480.47,47.54h30.16s2-15.78-6.43-22.6-18.56-3.66-18.56-3.66S474.28,24.72,471.89,34s-2.53,13.24-1.39,18.54,6.94,14.14,15.14,15.65,21.33-.63,23-2.65L506.72,57s-16.28,6.94-23.35-1C483.37,56,479.71,53.34,480.47,47.54Z"/><rect class="cls-1" x="286.93" y="1.71" width="10.98" height="66.64"/><path class="cls-1" d="M390.92,22.65h9.72v4.72s5.27-8,14.43-4.72v10s-7.4-3.14-12.08,5.09a25.48,25.48,0,0,0-1.06,7.4V67.42H391.48Z"/></svg>